<svg width="180" height="65" viewBox="0 0 180 65" fill="none" xmlns="http://www.w3.org/2000/svg">
<path d="M98 22L97.2536 31.4958V31.4958C96.6859 38.7363 91.7266 44.8835 84.7699 46.9698L78 49" stroke="#5C1891" stroke-width="6" stroke-linecap="round" stroke-linejoin="round"/>
<path d="M71.618 28.1356V32.1854C71.618 41.1771 64.3288 48.4663 55.3371 48.4663V48.4663V48.4663C46.8666 48.4663 40 41.5997 40 33.1293V30.6571C40 25.9758 41.8432 21.4827 45.1309 18.15L50.5 12.7074M71.6187 9L61.7357 19.0183C57.4846 23.3276 55.1011 29.1375 55.1011 35.1908V35.1908M82 11.3919V39.257M69.0225 54.0865L63.6094 56" stroke="#5C1891" stroke-width="6" stroke-linecap="round" stroke-linejoin="round"/>
<path d="M130 21L125 22" stroke="#5C1891" stroke-width="6" stroke-linecap="round" stroke-linejoin="round"/>
<path d="M113 50V28.5V17.4327C113 11.6709 117.671 7 123.433 7V7H132.37C138.793 7 144 12.2068 144 18.6297V24.1561C144 27.5268 141.267 30.2593 137.897 30.2593V30.2593C132.498 30.2593 129.758 36.7535 133.525 40.6209L142.66 50" stroke="#5C1891" stroke-width="6" stroke-linecap="round" stroke-linejoin="round"/>
</svg>
