<svg width="180" height="65" viewBox="0 0 180 65" fill="none" xmlns="http://www.w3.org/2000/svg">
<path fill-rule="evenodd" clip-rule="evenodd" d="M136.226 44.1776C136.769 46.34 138.765 47.8451 141.109 47.6981L161.976 46.3888C164.258 46.2458 166.076 44.1379 166.076 41.6784V37.072C167.273 36.354 168.38 35.6137 169.389 34.8603L169.412 34.8599V36.4403L168.626 36.4573V38.4835L169.412 38.4596V40.0399L168.626 40.0692V42.0954L169.412 42.0593V43.6396L168.543 43.6856C168.107 46.5066 165.973 48.8133 163.303 49.178V49.9595L161.809 50.0834V49.3013L159.872 49.4464V50.244L158.334 50.3715V49.5616L156.34 49.711V50.5369L154.756 50.6682V49.8296L152.702 49.9834V50.8385L151.071 50.9737V50.1056L148.955 50.2641V51.1492L147.274 51.2886V50.39L145.092 50.5534V51.4695L143.359 51.6132V50.6833L141.109 50.8518V51.7996L139.321 51.948V50.9596C136.093 50.9297 133.424 48.6859 132.867 45.5715L131.703 45.633V43.7948L131.833 43.7888C133.158 43.9904 134.64 44.1201 136.226 44.1776ZM160.866 44.7287L142.409 45.7535C140.993 45.832 139.724 45.2197 138.918 44.2073C145.383 44.1259 152.924 42.9867 158.427 40.8087C160.64 39.9328 162.681 38.972 164.534 37.9557V40.5587C164.534 42.7492 162.906 44.6154 160.866 44.7287Z" fill="#6D6E6D"/>
<path d="M136.226 44.1776C136.769 46.34 138.765 47.8451 141.109 47.6981L161.976 46.3888C164.258 46.2458 166.076 44.1379 166.076 41.6784V37.072C167.273 36.354 168.38 35.6137 169.389 34.8603L169.412 34.8599V36.4403L168.626 36.4573V38.4835L169.412 38.4596V40.0399L168.626 40.0692V42.0954L169.412 42.0593V43.6396L168.543 43.6856C168.107 46.5066 165.973 48.8133 163.303 49.178V49.9595L161.809 50.0834V49.3013L159.872 49.4464V50.244L158.334 50.3715V49.5616L156.34 49.711V50.5369L154.756 50.6682V49.8296L152.702 49.9834V50.8385L151.071 50.9737V50.1056L148.955 50.2641V51.1492L147.274 51.2886V50.39L145.092 50.5534V51.4695L143.359 51.6132V50.6833L141.109 50.8518V51.7996L139.321 51.948V50.9596C136.093 50.9297 133.424 48.6859 132.867 45.5715L131.703 45.633V43.7948L131.833 43.7888C133.158 43.9904 134.64 44.1201 136.226 44.1776ZM160.866 44.7287L142.409 45.7535C140.993 45.832 139.724 45.2197 138.918 44.2073C145.383 44.1259 152.924 42.9867 158.427 40.8087C160.64 39.9328 162.681 38.972 164.534 37.9557V40.5587C164.534 42.7492 162.906 44.6154 160.866 44.7287Z" fill="url(#paint0_linear_4234_56)"/>
<path fill-rule="evenodd" clip-rule="evenodd" d="M166.075 31.0043V21.2923C166.075 18.8328 164.258 16.726 161.976 16.5841L141.109 15.286C138.356 15.1147 136.08 17.2221 136.08 19.9963V38.8963C134.849 38.6879 133.733 38.3773 132.758 37.9636V18.632C132.758 14.6994 136.013 11.7534 139.92 12.0439L162.973 13.7583C166.129 13.993 168.626 16.9396 168.626 20.3454V29.1503C167.84 29.7759 166.989 30.396 166.075 31.0043ZM142.409 17.2299L160.866 18.2449C162.906 18.3571 164.534 20.2224 164.534 22.4129V31.9823C162.597 33.1547 160.422 34.2683 158.03 35.2759C157.789 35.3773 157.548 35.4763 157.307 35.5737C157.153 35.2427 156.998 34.9111 156.843 34.5784C156.68 34.2167 156.501 33.8595 156.336 33.4932C156.253 33.3109 156.136 33.1427 156.094 32.9266C156.088 32.8988 156.103 32.8718 156.109 32.852C156.15 32.7039 156.202 32.6798 156.317 32.6073C156.503 32.4892 156.681 32.3594 156.854 32.2293C156.96 32.1405 157.066 32.0519 157.172 31.9635C157.216 31.9201 157.261 31.8766 157.305 31.8333C157.418 31.7445 157.529 31.6268 157.617 31.5144C157.732 31.3672 157.868 31.234 157.978 31.0797C158.241 30.7096 158.454 30.2972 158.607 29.8207C158.685 29.5773 158.722 29.3134 158.778 29.0398C158.813 28.8677 158.8 28.6836 158.832 28.5061C158.836 28.4382 158.84 28.3704 158.843 28.3027C158.845 28.2046 158.846 28.1065 158.847 28.0083C158.86 27.9377 158.856 27.7535 158.843 27.6811C158.823 27.5672 158.844 27.4515 158.825 27.3462C158.8 27.2057 158.813 27.0719 158.785 26.9379C158.767 26.8271 158.749 26.7161 158.731 26.6052C158.678 26.3769 158.628 26.1535 158.549 25.9509C158.481 25.7767 158.423 25.3588 158.352 25.1939C158.198 24.839 157.981 24.3935 157.761 24.0971C157.685 23.9955 157.586 23.9095 157.509 23.8094C157.446 23.7258 157.364 23.6443 157.283 23.5771C157.127 23.4479 156.986 23.3 156.813 23.183C156.585 23.0289 156.342 22.8824 156.082 22.7563C155.932 22.6904 155.781 22.6245 155.63 22.5584C155.407 22.4586 155.17 22.4065 154.92 22.3286C154.707 22.2621 154.479 22.2372 154.246 22.1781C154.092 22.1391 153.917 22.1336 153.757 22.0949C153.703 22.0889 153.649 22.0831 153.595 22.0772C153.504 22.0556 153.402 22.067 153.303 22.0438C153.154 22.0086 152.961 22.011 152.795 22.0006C152.362 21.9735 151.926 21.9462 151.487 21.9187C149.279 21.7804 146.92 21.6375 144.634 21.4897C144.634 22.6383 144.634 24.1674 144.634 25.3161C146.836 25.3993 148.97 25.4798 151.038 25.558C151.514 25.5772 151.986 25.5963 152.455 25.6153C152.677 25.625 152.897 25.6345 153.117 25.6441C153.169 25.6473 153.22 25.6505 153.272 25.6537C153.522 25.7098 153.747 25.7565 153.949 25.8492C154.066 25.903 154.171 25.9785 154.269 26.0493C154.65 26.3231 154.934 26.6602 155.117 27.1158C155.175 27.26 155.194 27.4247 155.228 27.5865C155.233 27.6501 155.238 27.7138 155.244 27.7775C155.242 27.8136 155.241 27.8497 155.24 27.8859C155.238 27.9282 155.237 27.9706 155.236 28.013C155.216 28.1144 155.203 28.2172 155.178 28.3074C155.151 28.4073 155.138 28.5012 155.101 28.5907C154.955 28.9473 154.71 29.3043 154.417 29.5212C154.246 29.6476 154.08 29.7712 153.862 29.857C153.73 29.9094 153.572 29.9353 153.422 29.9684C153.194 30.0188 152.885 29.9927 152.615 29.9915C152.145 29.9894 151.689 29.9951 151.218 29.9931C149.094 29.9841 146.9 29.9747 144.634 29.965C144.634 32.9537 144.634 35.9431 144.634 38.932C142.263 39.2239 140.025 39.2935 138.014 39.1335V21.4004C138.014 18.9637 140 17.0975 142.409 17.2299ZM149.051 33.7973C149.177 33.7294 149.631 33.7493 149.831 33.745C150.346 33.7336 150.857 33.7224 151.364 33.7112C151.583 33.7065 151.912 33.669 152.074 33.7263C152.225 33.7801 152.271 33.9784 152.335 34.1183C152.494 34.4646 152.645 34.8143 152.803 35.1622C153.092 35.7973 153.374 36.3403 153.655 36.8996C152.043 37.4208 150.439 37.8556 148.866 38.202C148.866 37.2714 148.866 36.3693 148.866 35.3641C148.866 35.0396 148.866 34.715 148.866 34.3904C148.866 34.103 148.85 33.9066 149.051 33.7973Z" fill="#C33936"/>
<path d="M166.075 31.0043V21.2923C166.075 18.8328 164.258 16.726 161.976 16.5841L141.109 15.286C138.356 15.1147 136.08 17.2221 136.08 19.9963V38.8963C134.849 38.6879 133.733 38.3773 132.758 37.9636V18.632C132.758 14.6994 136.013 11.7534 139.92 12.0439L162.973 13.7583C166.129 13.993 168.626 16.9396 168.626 20.3454V29.1503C167.84 29.7759 166.989 30.396 166.075 31.0043ZM142.409 17.2299L160.866 18.2449C162.906 18.3571 164.534 20.2224 164.534 22.4129V31.9823C162.597 33.1547 160.422 34.2683 158.03 35.2759C157.789 35.3773 157.548 35.4763 157.307 35.5737C157.153 35.2427 156.998 34.9111 156.843 34.5784C156.68 34.2167 156.501 33.8595 156.336 33.4932C156.253 33.3109 156.136 33.1427 156.094 32.9266C156.088 32.8988 156.103 32.8718 156.109 32.852C156.15 32.7039 156.202 32.6798 156.317 32.6073C156.503 32.4892 156.681 32.3594 156.854 32.2293C156.96 32.1405 157.066 32.0519 157.172 31.9635C157.216 31.9201 157.261 31.8766 157.305 31.8333C157.418 31.7445 157.529 31.6268 157.617 31.5144C157.732 31.3672 157.868 31.234 157.978 31.0797C158.241 30.7096 158.454 30.2972 158.607 29.8207C158.685 29.5773 158.722 29.3134 158.778 29.0398C158.813 28.8677 158.8 28.6836 158.832 28.5061C158.836 28.4382 158.84 28.3704 158.843 28.3027C158.845 28.2046 158.846 28.1065 158.847 28.0083C158.86 27.9377 158.856 27.7535 158.843 27.6811C158.823 27.5672 158.844 27.4515 158.825 27.3462C158.8 27.2057 158.813 27.0719 158.785 26.9379C158.767 26.8271 158.749 26.7161 158.731 26.6052C158.678 26.3769 158.628 26.1535 158.549 25.9509C158.481 25.7767 158.423 25.3588 158.352 25.1939C158.198 24.839 157.981 24.3935 157.761 24.0971C157.685 23.9955 157.586 23.9095 157.509 23.8094C157.446 23.7258 157.364 23.6443 157.283 23.5771C157.127 23.4479 156.986 23.3 156.813 23.183C156.585 23.0289 156.342 22.8824 156.082 22.7563C155.932 22.6904 155.781 22.6245 155.63 22.5584C155.407 22.4586 155.17 22.4065 154.92 22.3286C154.707 22.2621 154.479 22.2372 154.246 22.1781C154.092 22.1391 153.917 22.1336 153.757 22.0949C153.703 22.0889 153.649 22.0831 153.595 22.0772C153.504 22.0556 153.402 22.067 153.303 22.0438C153.154 22.0086 152.961 22.011 152.795 22.0006C152.362 21.9735 151.926 21.9462 151.487 21.9187C149.279 21.7804 146.92 21.6375 144.634 21.4897C144.634 22.6383 144.634 24.1674 144.634 25.3161C146.836 25.3993 148.97 25.4798 151.038 25.558C151.514 25.5772 151.986 25.5963 152.455 25.6153C152.677 25.625 152.897 25.6345 153.117 25.6441C153.169 25.6473 153.22 25.6505 153.272 25.6537C153.522 25.7098 153.747 25.7565 153.949 25.8492C154.066 25.903 154.171 25.9785 154.269 26.0493C154.65 26.3231 154.934 26.6602 155.117 27.1158C155.175 27.26 155.194 27.4247 155.228 27.5865C155.233 27.6501 155.238 27.7138 155.244 27.7775C155.242 27.8136 155.241 27.8497 155.24 27.8859C155.238 27.9282 155.237 27.9706 155.236 28.013C155.216 28.1144 155.203 28.2172 155.178 28.3074C155.151 28.4073 155.138 28.5012 155.101 28.5907C154.955 28.9473 154.71 29.3043 154.417 29.5212C154.246 29.6476 154.08 29.7712 153.862 29.857C153.73 29.9094 153.572 29.9353 153.422 29.9684C153.194 30.0188 152.885 29.9927 152.615 29.9915C152.145 29.9894 151.689 29.9951 151.218 29.9931C149.094 29.9841 146.9 29.9747 144.634 29.965C144.634 32.9537 144.634 35.9431 144.634 38.932C142.263 39.2239 140.025 39.2935 138.014 39.1335V21.4004C138.014 18.9637 140 17.0975 142.409 17.2299ZM149.051 33.7973C149.177 33.7294 149.631 33.7493 149.831 33.745C150.346 33.7336 150.857 33.7224 151.364 33.7112C151.583 33.7065 151.912 33.669 152.074 33.7263C152.225 33.7801 152.271 33.9784 152.335 34.1183C152.494 34.4646 152.645 34.8143 152.803 35.1622C153.092 35.7973 153.374 36.3403 153.655 36.8996C152.043 37.4208 150.439 37.8556 148.866 38.202C148.866 37.2714 148.866 36.3693 148.866 35.3641C148.866 35.0396 148.866 34.715 148.866 34.3904C148.866 34.103 148.85 33.9066 149.051 33.7973Z" fill="url(#paint1_linear_4234_56)"/>
<path fill-rule="evenodd" clip-rule="evenodd" d="M158.427 40.9335C149.464 44.4857 136.772 45.499 130.64 43.5586C136.816 44.2076 147.698 43.0776 155.156 40.1881C168.071 35.1846 175.318 27.4114 173.575 22.2035C173.036 20.594 171.702 19.3394 169.774 18.4599C173.198 19.2247 175.58 20.7901 176.345 23.0811C178.065 28.2315 171.004 35.9487 158.427 40.9335Z" fill="#6D6E6D"/>
<path d="M158.427 40.9335C149.464 44.4857 136.772 45.499 130.64 43.5586C136.816 44.2076 147.698 43.0776 155.156 40.1881C168.071 35.1846 175.318 27.4114 173.575 22.2035C173.036 20.594 171.702 19.3394 169.774 18.4599C173.198 19.2247 175.58 20.7901 176.345 23.0811C178.065 28.2315 171.004 35.9487 158.427 40.9335Z" fill="url(#paint2_linear_4234_56)"/>
<path fill-rule="evenodd" clip-rule="evenodd" d="M156.131 37.9892C164.829 34.2522 170.717 29.1935 172.835 24.8878C170.063 28.435 164.955 32.2374 158.03 35.1509C145.087 40.5956 131.271 40.482 128.887 34.2126C128.161 32.3018 128.632 30.0903 130.056 27.81C126.828 31.1702 125.362 34.5914 126.424 37.3715C128.842 43.7063 142.937 43.6579 156.131 37.9892Z" fill="#ED2A2F"/>
<path d="M156.131 37.9892C164.829 34.2522 170.717 29.1935 172.835 24.8878C170.063 28.435 164.955 32.2374 158.03 35.1509C145.087 40.5956 131.271 40.482 128.887 34.2126C128.161 32.3018 128.632 30.0903 130.056 27.81C126.828 31.1702 125.362 34.5914 126.424 37.3715C128.842 43.7063 142.937 43.6579 156.131 37.9892Z" fill="url(#paint3_linear_4234_56)"/>
<g clip-path="url(#clip0_4234_56)">
<path fill-rule="evenodd" clip-rule="evenodd" d="M112.555 43.248L106.986 25.3011L101.45 43.248H94.8217L103.569 17.8242H110.368L119.116 43.248H112.555ZM86.1518 43.248L80.6507 32.5228L77.5756 36.6019V43.248H71.1284V17.8242H77.5756V28.0922L84.7167 17.8242H92.1997L85.4001 27.5295L93.293 43.248H86.1518ZM60.7405 43.248H54.0776V32.6634L45.3648 17.8242H52.5401L57.4262 26.8614L62.2781 17.8242H69.5218L60.7405 32.6634V43.248ZM42.4931 43.248L36.9237 25.5353L31.3885 43.248H24.7596L33.5068 17.8242H40.3064L49.0535 43.248H42.4931ZM15.9102 43.248L12.3225 34.492H8.83737V43.248H2.85693V28.7336H12.0302V28.6984H13.8668C14.5476 28.6984 15.1289 28.4195 15.6111 27.8608C16.0933 27.3025 16.3343 26.6766 16.3343 25.9833C16.3343 25.2711 16.0836 24.6547 15.5828 24.1347C15.0815 23.6148 14.5094 23.3548 13.8668 23.3548H12.0302V23.3492H2.85693V17.8242H13.3817C16.4339 17.8242 18.6832 18.5747 20.1301 20.0747C21.5764 21.5752 22.2997 23.5559 22.2997 26.0175C22.2997 27.8459 21.958 29.335 21.2747 30.4833C20.5913 31.6322 19.6228 32.6053 18.3704 33.4019L22.7098 43.248H15.9102Z" fill="#1D5086"/>
<path d="M112.555 43.248L106.986 25.3011L101.45 43.248H94.8217L103.569 17.8242H110.368L119.116 43.248H112.555ZM86.1518 43.248L80.6507 32.5228L77.5756 36.6019V43.248H71.1284V17.8242H77.5756V28.0922L84.7167 17.8242H92.1997L85.4001 27.5295L93.293 43.248H86.1518ZM60.7405 43.248H54.0776V32.6634L45.3648 17.8242H52.5401L57.4262 26.8614L62.2781 17.8242H69.5218L60.7405 32.6634V43.248ZM42.4931 43.248L36.9237 25.5353L31.3885 43.248H24.7596L33.5068 17.8242H40.3064L49.0535 43.248H42.4931ZM15.9102 43.248L12.3225 34.492H8.83737V43.248H2.85693V28.7336H12.0302V28.6984H13.8668C14.5476 28.6984 15.1289 28.4195 15.6111 27.8608C16.0933 27.3025 16.3343 26.6766 16.3343 25.9833C16.3343 25.2711 16.0836 24.6547 15.5828 24.1347C15.0815 23.6148 14.5094 23.3548 13.8668 23.3548H12.0302V23.3492H2.85693V17.8242H13.3817C16.4339 17.8242 18.6832 18.5747 20.1301 20.0747C21.5764 21.5752 22.2997 23.5559 22.2997 26.0175C22.2997 27.8459 21.958 29.335 21.2747 30.4833C20.5913 31.6322 19.6228 32.6053 18.3704 33.4019L22.7098 43.248H15.9102Z" fill="url(#paint4_linear_4234_56)" stroke="white" stroke-width="2"/>
</g>
<defs>
<linearGradient id="paint0_linear_4234_56" x1="131.703" y1="1133.26" x2="1243.2" y2="-924.886" gradientUnits="userSpaceOnUse">
<stop stop-color="#3D3D3D"/>
<stop offset="0.25" stop-color="#747474"/>
<stop offset="0.69" stop-color="#989898"/>
<stop offset="1" stop-color="#BCBCBC"/>
</linearGradient>
<linearGradient id="paint1_linear_4234_56" x1="132.758" y1="12.0241" x2="3719.53" y2="12.0241" gradientUnits="userSpaceOnUse">
<stop stop-color="#861619"/>
<stop offset="1" stop-color="#ED1F24"/>
</linearGradient>
<linearGradient id="paint2_linear_4234_56" x1="130.64" y1="1694.21" x2="2012.37" y2="-1089.52" gradientUnits="userSpaceOnUse">
<stop stop-color="#505150"/>
<stop offset="0.47" stop-color="#D9DADA"/>
<stop offset="0.72" stop-color="#959695"/>
<stop offset="1" stop-color="#505150"/>
</linearGradient>
<linearGradient id="paint3_linear_4234_56" x1="126.082" y1="24.8878" x2="4801.41" y2="24.8878" gradientUnits="userSpaceOnUse">
<stop stop-color="#861619"/>
<stop offset="1" stop-color="#ED1F24"/>
</linearGradient>
<linearGradient id="paint4_linear_4234_56" x1="2.85693" y1="17.8242" x2="11628.7" y2="17.8242" gradientUnits="userSpaceOnUse">
<stop stop-color="#861619"/>
<stop offset="1" stop-color="#ED1F24"/>
</linearGradient>
<clipPath id="clip0_4234_56">
<rect width="118" height="35" fill="white" transform="translate(2 17)"/>
</clipPath>
</defs>
</svg>
