<svg width="25" height="24" viewBox="0 0 25 24" fill="none" xmlns="http://www.w3.org/2000/svg">
<path d="M18.9142 15.5858C19.6953 16.3668 19.6953 17.6332 18.9142 18.4142C18.1332 19.1953 16.8668 19.1953 16.0858 18.4142C15.3047 17.6332 15.3047 16.3668 16.0858 15.5858C16.8668 14.8047 18.1332 14.8047 18.9142 15.5858Z" fill="#fff" stroke="white" strokeWidth="1.5" strokeLinecap="round" strokeLinejoin="round"/>
<path d="M8.91422 5.58579C9.69527 6.36684 9.69527 7.63317 8.91422 8.41422C8.13317 9.19526 6.86684 9.19526 6.08579 8.41422C5.30474 7.63317 5.30474 6.36684 6.08579 5.58579C6.86684 4.80474 8.13317 4.80474 8.91422 5.58579Z" fill="#fff" stroke="white" strokeWidth="1.5" strokeLinecap="round" strokeLinejoin="round"/>
<path d="M17.5 7L7.5 17L17.5 7Z" fill="#fff"/>
<path d="M17.5 7L7.5 17" stroke="#fff" strokeWidth="1.5" strokeLinecap="round" strokeLinejoin="round"/>
</svg>
