<svg width="10" height="6" viewBox="0 0 10 6" fill="none" xmlns="http://www.w3.org/2000/svg">
<path d="M5.22487 5.22487C5.09204 5.35766 4.9119 5.43226 4.72408 5.43226C4.53625 5.43226 4.35612 5.35766 4.22329 5.22487L0.216246 1.21783C0.148593 1.15249 0.0946304 1.07433 0.0575074 0.987908C0.0203843 0.901488 0.000844031 0.80854 2.67441e-05 0.714488C-0.000790542 0.620436 0.0171317 0.527164 0.0527473 0.440112C0.0883629 0.35306 0.140959 0.273973 0.207466 0.207466C0.273974 0.140959 0.35306 0.0883626 0.440112 0.052747C0.527163 0.0171313 0.620436 -0.000790542 0.714488 2.67446e-05C0.80854 0.000844031 0.901488 0.0203843 0.987907 0.0575074C1.07433 0.0946304 1.15249 0.148593 1.21783 0.216246L4.72408 3.7225L8.23033 0.216246C8.36392 0.087217 8.54285 0.015821 8.72857 0.0174349C8.91429 0.0190488 9.09195 0.0935433 9.22328 0.224874C9.35461 0.356205 9.42911 0.533864 9.43072 0.719587C9.43234 0.905309 9.36094 1.08424 9.23191 1.21783L5.22487 5.22487Z" fill="#292D32" fill-opacity="0.7"/>
<path d="M5.22487 5.22487C5.09204 5.35766 4.9119 5.43226 4.72408 5.43226C4.53625 5.43226 4.35612 5.35766 4.22329 5.22487L0.216246 1.21783C0.148593 1.15249 0.0946304 1.07433 0.0575074 0.987908C0.0203843 0.901488 0.000844031 0.80854 2.67441e-05 0.714488C-0.000790542 0.620436 0.0171317 0.527164 0.0527473 0.440112C0.0883629 0.35306 0.140959 0.273973 0.207466 0.207466C0.273974 0.140959 0.35306 0.0883626 0.440112 0.052747C0.527163 0.0171313 0.620436 -0.000790542 0.714488 2.67446e-05C0.80854 0.000844031 0.901488 0.0203843 0.987907 0.0575074C1.07433 0.0946304 1.15249 0.148593 1.21783 0.216246L4.72408 3.7225L8.23033 0.216246C8.36392 0.087217 8.54285 0.015821 8.72857 0.0174349C8.91429 0.0190488 9.09195 0.0935433 9.22328 0.224874C9.35461 0.356205 9.42911 0.533864 9.43072 0.719587C9.43234 0.905309 9.36094 1.08424 9.23191 1.21783L5.22487 5.22487Z" stroke="#313131"/>
</svg>
