<svg width="37" height="37" viewBox="0 0 37 37" fill="none" xmlns="http://www.w3.org/2000/svg">
<rect width="37" height="37" rx="15" fill="#5C1891"/>
<path d="M16.7634 13C16.6126 13 16.4618 13.0565 16.3428 13.1775L11.5252 18.0735C11.295 18.3074 11.295 18.6946 11.5252 18.9285L16.3428 23.8246C16.5729 24.0585 16.9539 24.0585 17.1841 23.8246C17.4142 23.5907 17.4142 23.2035 17.1841 22.9696L12.7871 18.501L17.1841 14.0324C17.4142 13.7985 17.4142 13.4114 17.1841 13.1775C17.073 13.0565 16.9142 13 16.7634 13Z" fill="white"/>
<path d="M25.7488 18L11.9667 18C11.631 18 11.3525 18.2267 11.3525 18.5C11.3525 18.7733 11.631 19 11.9667 19L25.7488 19C26.0845 19 26.363 18.7733 26.363 18.5C26.363 18.2267 26.0845 18 25.7488 18Z" fill="white"/>
</svg>
