<svg width="22" height="22" viewBox="0 0 22 22" fill="none" xmlns="http://www.w3.org/2000/svg">
<path d="M15.583 9.16659H17.4163C19.2497 9.16659 20.1663 8.24992 20.1663 6.41659V4.58325C20.1663 2.74992 19.2497 1.83325 17.4163 1.83325H15.583C13.7497 1.83325 12.833 2.74992 12.833 4.58325V6.41659C12.833 8.24992 13.7497 9.16659 15.583 9.16659Z" stroke="#5B5B5B" stroke-width="2" stroke-miterlimit="10" stroke-linecap="round" stroke-linejoin="round"/>
<path d="M4.58301 20.1666H6.41634C8.24967 20.1666 9.16634 19.2499 9.16634 17.4166V15.5833C9.16634 13.7499 8.24967 12.8333 6.41634 12.8333H4.58301C2.74967 12.8333 1.83301 13.7499 1.83301 15.5833V17.4166C1.83301 19.2499 2.74967 20.1666 4.58301 20.1666Z" stroke="#5B5B5B" stroke-width="2" stroke-miterlimit="10" stroke-linecap="round" stroke-linejoin="round"/>
<path d="M5.49967 9.16659C7.52472 9.16659 9.16634 7.52496 9.16634 5.49992C9.16634 3.47487 7.52472 1.83325 5.49967 1.83325C3.47463 1.83325 1.83301 3.47487 1.83301 5.49992C1.83301 7.52496 3.47463 9.16659 5.49967 9.16659Z" stroke="#5B5B5B" stroke-width="2" stroke-miterlimit="10" stroke-linecap="round" stroke-linejoin="round"/>
<path d="M16.4997 20.1666C18.5247 20.1666 20.1663 18.525 20.1663 16.4999C20.1663 14.4749 18.5247 12.8333 16.4997 12.8333C14.4746 12.8333 12.833 14.4749 12.833 16.4999C12.833 18.525 14.4746 20.1666 16.4997 20.1666Z" stroke="#5B5B5B" stroke-width="2" stroke-miterlimit="10" stroke-linecap="round" stroke-linejoin="round"/>
</svg>
