<svg width="37" height="37" viewBox="0 0 37 37" fill="none" xmlns="http://www.w3.org/2000/svg">
<rect x="37" y="37" width="37" height="37" rx="15" transform="rotate(-180 37 37)" fill="#5C1891"/>
<path d="M20.2366 24C20.3874 24 20.5382 23.9435 20.6572 23.8225L25.4748 18.9265C25.705 18.6926 25.705 18.3054 25.4748 18.0715L20.6572 13.1754C20.4271 12.9415 20.0461 12.9415 19.8159 13.1754C19.5858 13.4093 19.5858 13.7965 19.8159 14.0304L24.2129 18.499L19.8159 22.9676C19.5858 23.2015 19.5858 23.5886 19.8159 23.8225C19.927 23.9435 20.0858 24 20.2366 24Z" fill="white"/>
<path d="M11.2512 19H25.0333C25.369 19 25.6475 18.7733 25.6475 18.5C25.6475 18.2267 25.369 18 25.0333 18H11.2512C10.9155 18 10.637 18.2267 10.637 18.5C10.637 18.7733 10.9155 19 11.2512 19Z" fill="white"/>
</svg>
